<svg width="14" height="14" viewBox="0 0 14 14" fill="none" xmlns="http://www.w3.org/2000/svg">
    <path d="M5.5825 7.26831L3.80333 9.04748" stroke="white" stroke-width="1.5" stroke-miterlimit="10" stroke-linecap="round" stroke-linejoin="round"/>
    <path d="M3.82083 7.28589L5.6 9.06505" stroke="white" stroke-width="1.5" stroke-miterlimit="10" stroke-linecap="round" stroke-linejoin="round"/>
    <path d="M7.8925 8.16663H7.89834" stroke="white" stroke-width="1.5" stroke-miterlimit="10" stroke-linecap="round" stroke-linejoin="round"/>
    <path d="M10.1908 8.16663H10.1967" stroke="white" stroke-width="1.5" stroke-miterlimit="10" stroke-linecap="round" stroke-linejoin="round"/>
    <path d="M9.04167 9.32172V9.31006" stroke="white" stroke-width="1.5" stroke-miterlimit="10" stroke-linecap="round" stroke-linejoin="round"/>
    <path d="M9.04167 7.02339V7.01172" stroke="white" stroke-width="1.5" stroke-miterlimit="10" stroke-linecap="round" stroke-linejoin="round"/>
    <path d="M5.25 12.8333H8.75C11.6667 12.8333 12.8333 11.6667 12.8333 8.75V7.58333C12.8333 4.66667 11.6667 3.5 8.75 3.5H5.25C2.33334 3.5 1.16667 4.66667 1.16667 7.58333V8.75C1.16667 11.6667 2.33334 12.8333 5.25 12.8333Z" stroke="white" stroke-width="1.5" stroke-linecap="round" stroke-linejoin="round"/>
    <path d="M7.58917 1.16663L7.58333 1.75579C7.5775 2.07663 7.32083 2.33329 7 2.33329H6.9825C6.66167 2.33329 6.405 2.59579 6.405 2.91663C6.405 3.23746 6.6675 3.49996 6.98833 3.49996H7.57167" stroke="white" stroke-width="1.5" stroke-linecap="round" stroke-linejoin="round"/>
</svg>
