<svg width="14" height="12" viewBox="0 0 14 12" fill="none" xmlns="http://www.w3.org/2000/svg">
    <path fill-rule="evenodd" clip-rule="evenodd" d="M13.989 4.60112C14.2128 2.30692 10.9953 0.404419 7.00149 0.404419C3.00763 0.404419 -0.209837 2.30692 0.0139871 4.60112H13.989Z" fill="white"/>
    <path fill-rule="evenodd" clip-rule="evenodd" d="M2.34316 7.04917C2.72785 7.04917 2.88873 7.14709 3.14752 7.30097C3.46227 7.48982 3.89593 7.74862 4.67232 7.74862C5.44871 7.74862 5.88237 7.48982 6.19712 7.30097C6.45592 7.1401 6.6098 7.04917 7.00149 7.04917C7.38619 7.04917 7.54706 7.14709 7.80586 7.30097C8.12061 7.48982 8.55427 7.74862 9.33066 7.74862C10.107 7.74862 10.5407 7.48982 10.8555 7.30097C11.1143 7.1401 11.2681 7.04917 11.6598 7.04917C12.0445 7.04917 12.2054 7.14709 12.4642 7.30097C12.7789 7.48982 13.2126 7.74162 13.982 7.74862V6.36371C13.982 6.36371 13.4294 6.2518 13.1706 6.09792C12.8559 5.90907 12.4222 5.65027 11.6458 5.65027C10.8694 5.65027 10.4358 5.90907 10.121 6.09792C9.86224 6.25879 9.70136 6.34972 9.31667 6.34972C8.93197 6.34972 8.7711 6.2518 8.5123 6.09792C8.19755 5.90907 7.76389 5.65027 6.9875 5.65027C6.21111 5.65027 5.77745 5.90907 5.4627 6.09792C5.2039 6.25879 5.05002 6.34972 4.65833 6.34972C4.27364 6.34972 4.11276 6.2518 3.85397 6.09792C3.53921 5.90907 3.10556 5.65027 2.32917 5.65027C1.55278 5.65027 1.11912 5.90907 0.804367 6.09792C0.545571 6.25879 0.391692 6.34972 0 6.34972V7.74862C0.776389 7.74862 1.21005 7.48982 1.54578 7.30097C1.80458 7.1401 1.95846 7.04917 2.34316 7.04917Z" fill="white"/>
    <path fill-rule="evenodd" clip-rule="evenodd" d="M0 8.79785V10.1968C0 10.9661 0.629504 11.5956 1.3989 11.5956H12.5901C13.3595 11.5956 13.989 10.9661 13.989 10.1968V8.79785H0Z" fill="white"/>
</svg>
