<svg width="14" height="14" viewBox="0 0 14 14" fill="none" xmlns="http://www.w3.org/2000/svg">
    <path d="M13.3636 12.0909H12.7273V4.45453H13.3636C13.5324 4.45453 13.6943 4.38749 13.8136 4.26815C13.933 4.14881 14 3.98694 14 3.81817C14 3.6494 13.933 3.48754 13.8136 3.36819C13.6943 3.24885 13.5324 3.18181 13.3636 3.18181H12.7273V1.27272C12.7273 1.10394 12.6602 0.94208 12.5409 0.822739C12.4215 0.703398 12.2597 0.636353 12.0909 0.636353H1.90909C1.74032 0.636353 1.57846 0.703398 1.45911 0.822739C1.33977 0.94208 1.27273 1.10394 1.27273 1.27272V3.18181H0.636364C0.467589 3.18181 0.305728 3.24885 0.186387 3.36819C0.0670452 3.48754 0 3.6494 0 3.81817C0 3.98694 0.0670452 4.14881 0.186387 4.26815C0.305728 4.38749 0.467589 4.45453 0.636364 4.45453H1.27273V12.0909H0.636364C0.467589 12.0909 0.305728 12.1579 0.186387 12.2773C0.0670452 12.3966 0 12.5585 0 12.7273C0 12.896 0.0670452 13.0579 0.186387 13.1772C0.305728 13.2966 0.467589 13.3636 0.636364 13.3636H13.3636C13.5324 13.3636 13.6943 13.2966 13.8136 13.1772C13.933 13.0579 14 12.896 14 12.7273C14 12.5585 13.933 12.3966 13.8136 12.2773C13.6943 12.1579 13.5324 12.0909 13.3636 12.0909ZM8.90909 12.0909H5.09091V9.84453C5.08937 9.16249 5.26439 8.49166 5.59893 7.8973C5.93347 7.30293 6.41614 6.80527 7 6.45272C7.58386 6.80527 8.06653 7.30293 8.40107 7.8973C8.73561 8.49166 8.91063 9.16249 8.90909 9.84453V12.0909ZM11.4545 12.0909H10.1818V9.84453C10.1861 8.87106 9.91694 7.91595 9.40505 7.08793C8.89315 6.2599 8.15907 5.59222 7.28636 5.1609C7.19754 5.11614 7.09946 5.09283 7 5.09283C6.90054 5.09283 6.80246 5.11614 6.71364 5.1609C5.84093 5.59222 5.10685 6.2599 4.59495 7.08793C4.08306 7.91595 3.81393 8.87106 3.81818 9.84453V12.0909H2.54545V4.45453H11.4545V12.0909ZM11.4545 3.18181H2.54545V1.90908H11.4545V3.18181Z" fill="white"/>
</svg>
