<svg width="14" height="14" viewBox="0 0 14 14" fill="none" xmlns="http://www.w3.org/2000/svg">
    <path d="M11.0658 12.8333H2.89917C1.14917 12.8333 1.14917 12.0458 1.14917 11.0833V10.5C1.14917 10.1791 1.41167 9.91663 1.7325 9.91663H12.2325C12.5533 9.91663 12.8158 10.1791 12.8158 10.5V11.0833C12.8158 12.0458 12.8158 12.8333 11.0658 12.8333Z" stroke="white" stroke-width="1.5" stroke-linecap="round" stroke-linejoin="round"/>
    <path d="M12.0867 7.58329V9.91663H1.9075V7.58329C1.9075 5.34329 3.48833 3.47079 5.59417 3.02163C5.90917 2.95163 6.23583 2.91663 6.57417 2.91663H7.42C7.75833 2.91663 8.09083 2.95163 8.40583 3.02163C10.5117 3.47663 12.0867 5.34329 12.0867 7.58329Z" stroke="white" stroke-width="1.5" stroke-linecap="round" stroke-linejoin="round"/>
    <path d="M8.45834 2.62496C8.45834 2.76496 8.44084 2.89329 8.40584 3.02163C8.09084 2.95163 7.75834 2.91663 7.42001 2.91663H6.57417C6.23584 2.91663 5.90917 2.95163 5.59417 3.02163C5.55917 2.89329 5.54167 2.76496 5.54167 2.62496C5.54167 1.81996 6.19501 1.16663 7.00001 1.16663C7.80501 1.16663 8.45834 1.81996 8.45834 2.62496Z" stroke="white" stroke-width="1.5" stroke-linecap="round" stroke-linejoin="round"/>
    <path d="M8.75 6.41663H5.25" stroke="white" stroke-width="1.5" stroke-linecap="round" stroke-linejoin="round"/>
</svg>
