<svg width="14" height="14" viewBox="0 0 14 14" fill="none" xmlns="http://www.w3.org/2000/svg">
    <path d="M13.3 5.33313C13.3919 5.33315 13.483 5.31593 13.5679 5.28243C13.6528 5.24893 13.73 5.19983 13.795 5.13791C13.86 5.076 13.9116 5.0025 13.9468 4.9216C13.9819 4.84071 14 4.754 14 4.66645V2.6664C14.0001 2.52652 13.9539 2.39016 13.868 2.27669C13.7821 2.16322 13.6609 2.07838 13.5215 2.03423L7.22149 0.0341804C7.07771 -0.0113935 6.92229 -0.0113935 6.77851 0.0341804L0.478513 2.03423C0.339145 2.07838 0.217916 2.16322 0.132024 2.27669C0.0461322 2.39016 -6.02921e-05 2.52652 5.90619e-08 2.6664V4.66645C-2.38526e-05 4.754 0.0180659 4.84071 0.0532358 4.9216C0.0884056 5.0025 0.139966 5.076 0.204972 5.13791C0.269978 5.19983 0.347155 5.24893 0.432093 5.28243C0.517032 5.31593 0.608068 5.33315 0.7 5.33313H1.4V10.1228C0.991716 10.2597 0.637956 10.5137 0.387287 10.8498C0.136619 11.1859 0.00133173 11.5877 5.90619e-08 12V13.3333C-2.38526e-05 13.4209 0.0180659 13.5076 0.0532358 13.5885C0.0884056 13.6694 0.139966 13.7429 0.204972 13.8048C0.269978 13.8667 0.347155 13.9158 0.432093 13.9493C0.517032 13.9828 0.608068 14 0.7 14H13.3C13.3919 14 13.483 13.9828 13.5679 13.9493C13.6528 13.9158 13.73 13.8667 13.795 13.8048C13.86 13.7429 13.9116 13.6694 13.9468 13.5885C13.9819 13.5076 14 13.4209 14 13.3333V12C13.9987 11.5877 13.8634 11.1859 13.6127 10.8498C13.362 10.5137 13.0083 10.2597 12.6 10.1228V5.33313H13.3ZM12.6 12.6666H1.4V12C1.40019 11.8232 1.47399 11.6537 1.60523 11.5287C1.73647 11.4037 1.91441 11.3334 2.1 11.3333H11.9C12.0856 11.3334 12.2635 11.4037 12.3948 11.5287C12.526 11.6537 12.5998 11.8232 12.6 12V12.6666ZM2.8 9.99991V5.33313H4.2V9.99991H2.8ZM5.6 9.99991V5.33313H8.4V9.99991H5.6ZM9.8 9.99991V5.33313H11.2V9.99991H9.8ZM1.4 3.99977V3.14688L7 1.36884L12.6 3.14688V3.99977H1.4Z" fill="white"/>
</svg>
